<svg xmlns="http://www.w3.org/2000/svg" viewBox="0 0 512 512" xml:space="preserve"><path fill="#527481" d="M463.802 16.686c1.126-5.806 3.488-10.679 7.008-15.4C471.75 1 472.5 1 473.625 1c1.898 1.87.37 3.319-.179 5.002-1.82 5.591-5.296 10.698-4.876 16.958 1.256 18.715 19.877 29.315 37.577 21.386 1.986-.89 3.887-2.982 6.583-.6.27.698.27 1.143.27 1.92-4.668 3.284-9.639 5.455-15.543 6.28-1.518 2.863-6.505 1.47-6.39 4.982.09 2.786 4.185 2.977 5.505 5.777.26 1.997.297 3.739.263 5.912-2.452 1.662-6.763 7.423-7.715 10.778-.891 3.139-3.25 3.943-6.113 4.02-5.647.153-11.296-.013-16.943.096-6.504.125-8.36 1.591-8.843 7.901-.338 4.421-1.662 8.348-4.065 11.957-2.492 3.743-2.099 7.182.827 10.439 2.073 2.307 3.552 5.215 6.764 6.924.493 1.712.483 3.077.112 4.833-2.202 2.773-4.316 2.44-6.585.612-2.445-1.97-5.12-3.704-7.125-6.142-2.869-3.49-5.718-3.997-9.902-1.722-5.956 3.24-12.422 5.522-19.428 5.065-2.96-.193-6.071-.43-7.376-4.389-.094-2.383 1.365-3.397 3.003-4.75 7.012-.109 13.493-.888 19.485-4.094 3.914-2.095 6.103-5.142 4.972-9.735-.769-3.12 1.064-6.245-.18-9.717 1.038-2.395 2.371-4.033 5.016-4.671 7.165.262 2.999 5.323 4.305 8.902 1.37-2.637 2.584-4.933 1.97-7.386-.684-2.737-3.53-.408-5.445-1.53-1.834 0-2.739-.763-3.28-2.465.023-.855.165-1.328.26-1.809 1.353-6.837-.614-8.633-7.908-6.788-2.84.855-4.953 2.417-7.675 3.497-5.107-.858-9.868.157-14.619-.192-1.483-.11-2.822.97-3.711 2.207-4.415 6.143-5.898 13.02-4.936 20.886-.37 2.252-1.657 3.322-3.627 4.223-4.129-.364-5.225-2.88-5.476-6.168-.488-6.39.5-12.496 3.085-18.382 2.769-6.306 2.485-7.02-2.626-11.358-4.31-3.657-8.337-7.575-9.519-13.887-.036-.989.091-1.528.632-2.377 1.19-1.14 2.273-1.46 3.892-1.327 2.402 1.122 3.555 2.97 5.107 4.953 1.128 1.261 2.03 2.223 2.991 3.127 6.615 6.219 8.693 6.434 16.346 1.89 2.815-1.672 5.506-3.705 9.366-3.77 2.288-.276 3.882-1.49 6.09-1.97 1.847.3 3.13.27 3.296-2.112.612-7.252-.151-14.175.603-21.442.246-6.541.246-6.541 6.345-7.213 4.318-.475 4.694-1.069 2.703-4.764-.65-1.205-1.42-2.255-.252-3.828 2.058-.294 3.83-.387 6.028-.348 3.568.751 5.177 3.157 6.821 5.559 1.17 1.71 2.65 3.067 4.927 2.684 2.172-.365 2.84-2.112 3.122-3.988.238-1.58 1.189-2.69 2.248-4.16"/><path fill="#7E5D68" d="M512.78 8.676c.22 8.012.22 15.7.22 23.855-3.713 10.75-14.553 16.026-25.436 12.26-14.624-5.06-22.607-21.04-14.763-34.91 2.611-4.618 5.942-7.934 11.833-8.659C490.688 1 496.376 1 502.532 1c4.829.925 9.117 1.943 10.248 7.676"/><path fill="#496B8C" d="M34.362 512.771C25.312 513 16.625 513 7.47 513c-3.446-1.172-5.881-2.813-6.254-6.714C1 498.979 1 491.958 1 484.469c4.04-10.22 13.078-15.364 23.204-13.675 10.642 1.776 19.328 10.629 20.172 20.61.197 2.322.252 4.67.033 6.983-.612 6.473-2.893 11.877-10.047 14.384"/><path fill="#50717B" d="M1 470.4c5.23-2.061 9.852-5.43 15.812-6.146 1.105-1.08 1.798-2.044 2.925-2.499 3.631-1.464 4.676-4.434 4.735-8.02.084-5.158-.079-10.318.1-15.473.211-6.032 1.553-7.533 7.362-7.66 9.813-.215 19.631-.128 29.447-.033 2.617.025 4.703.848 6.476 2.973 3.52 4.215 7.616 7.904 11.458 11.824 2.11 2.153 3.135 4.572 3.143 7.577.025 9.65.166 19.301-.068 28.948-.135 5.522-.984 6.27-6.491 6.516-4.322.193-8.651.03-12.976.1-6.662.108-7.431.646-9.842 6.802-.316.808-.84 1.415-1.76 2.306-.585 5.568-2.39 10.298-5.282 15.027-.483.358-.928.358-1.706.358-2.87-1.879-1.785-3.881-.787-6.14 5.61-12.69 2.397-25.472-8.238-32.81-9.072-6.258-18.432-5.76-27.762-.656-1.967 1.076-3.627 2.416-6.224.803C1 472.933 1 471.867 1 470.4"/><path fill="#73969E" d="M484.542 1c-7.917 5.17-13.151 12.245-12.029 22.51 1.04 9.499 6.558 16.113 15.567 18.733 9.872 2.871 18.288-.344 24.726-8.973.194 3.091.194 6.453.194 10.272-5.073 2.443-9.802 5.076-15.39 5.986-18.238 2.968-36.005-15.54-31.186-33.449 1.363-5.067 2.876-10.643 7.385-14.798C477.36 1 480.723 1 484.542 1"/><path fill="#72959E" d="M1 474.454c6.172-4.323 12.312-7.852 20.1-7.7 20.675.401 34.088 21.779 25.206 40.54a75 75 0 0 0-2.272 5.34c-3.065.366-6.095.366-9.58.366 4.023-5.027 7.945-10.15 7.751-17.54-.266-10.13-4.996-17.6-14-20.91-9.102-3.346-18.418-.787-24.727 6.789a42 42 0 0 1-2.204 2.472C1 480.97 1 477.94 1 474.454"/><path fill="#73969E" d="M513 8.505c-3.086-2.121-5.51-5.554-9.712-7.327C503.972 1 504.944 1 505.916 1 513 1 513 1 513 8.505"/><path fill="#72959E" d="M1 506.498c1.89 1.646 3.778 3.79 5.834 6.217-4.963 1.41-6.955-.599-5.834-6.217"/><path fill="#8F986F" d="M26.69 136.19c1.351-18.324 6.113-35.125 15.055-50.68 1.962-3.412 1.27-6.03-1.588-8.798-7.565-7.324-8.75-18.265-3.27-26.867 5.498-8.63 15.804-11.843 25.823-8.097 2.24.838 4.093 2.24 5.806 3.812 2.836 2.605 5.683 3.007 8.968.762 21.738-14.862 45.847-20.848 72.09-20.675 60.49.4 120.985.154 181.94.245 2.748 2.791.556 4.594-.836 6.596-7.209 10.363-4.607 18.2 3.655 25.297 1.575 1.353 4.28 1.17 5.023 4.054-2.094 7.093-.066 13.764.72 20.316 1.488 12.432 5.825 24.159 11.192 35.44 2.207 4.639 5.538 8.657 8.251 13.478.806 4.06-.09 7.826 1.065 11.602 2.889 9.445 8.876 13.838 19.326 13.641 1.635-.03 3.287-.689 5.268.237 19.89 13.443 41.49 20.013 65.479 20.103 2.346 1.534 3.015 3.931 4.478 5.766 6.734 8.45 15.752 9.63 24.992 3.276 1.9-1.306 3.639-3.946 6.63-.991.375 1.24.58 2.228.58 3.217.048 61.29.163 122.58.065 183.87-.032 19.792-4.929 38.488-14.604 55.792-2.234 3.995-2.059 6.696 1.36 9.998 8.033 7.758 8.393 20.968 1.246 28.91-7.91 8.793-20.358 9.882-29.44 2.293-3.46-2.89-6.312-3.22-10.19-.626-19.396 12.982-40.757 19.997-64.199 20.014-63.789.044-127.577-.002-191.81-.075-2.475-2.185.464-3.308.68-5.335.333-.757.538-1.182.891-1.93 5.782-6.854 6.045-11.61 1.022-20.147a14 14 0 0 1-.757-1.194c-.789-3.744-5.077-3.99-6.067-7.486-.475-25.167-6.54-48.213-21.474-68.884-1.292-2.251-1.49-4.374-1.745-6.526-1.206-10.207-6.21-15.343-16.426-16.878-1.972-.296-3.921-.592-6.161-1.414-19.893-13.845-41.645-20.55-65.818-20.816-2.894.283-3.56-1.986-4.878-3.318-7.903-7.998-16.804-9.78-26.02-2.022-.696.569-1.133.853-1.993 1.227-1.795.584-3.214 1.174-4.414-.881-.103-65.586-.142-130.71.085-196.305"/><path fill="#65898E" d="M51.462 497.884c-.48-1.958-.167-4.023-.563-5.942-1.09-5.28 1.478-6.25 6.026-6.04 5.981.277 11.987-.03 17.98.082 3.64.069 5.078-1.557 5.043-5.116-.094-9.324-.046-18.65-.042-27.974.001-2.281-.762-4.206-2.39-5.832-4.007-4-8.008-8.006-11.947-12.072-1.548-1.599-3.438-1.886-5.48-1.887-8.991-.001-17.986.124-26.974-.056-4.576-.091-6.245 1.88-6.11 6.3.187 6.156.054 12.321.033 18.482-.023 6.651-.036 6.647-6.574 6.257-.83-.05-1.665-.04-2.919-.063-.431-34.023-.44-68.041-.407-102.524 1.384-1.876 2.508-3.495 3.91-4.825 2.764-2.618 5.727-4.6 9.581-.818 6.338 7.72 7.347 16.308 6.975 25.55-.453 11.266-.211 22.565-.057 33.847.075 5.553 1.733 7.561 6.09 8.074 5.682.67 8.449-1.606 8.81-7.325.376-5.951-.501-11.948.873-18.237 2.054-1.638 4.193-2.261 6.297-2.006 10.444 1.266 20.21 4.396 28.767 11.432 2.259 2.474 1.748 4.42-.127 6.406-3.079 3.263-6.336 6.347-9.434 9.589-3.988 4.172-3.92 5.694.298 9.944 4.418 4.452 6.004 4.533 10.325.408 2.883-2.752 5.657-5.616 8.517-8.393 1.645-1.598 3.344-2.777 6.108-1.501.848.27 1.424.37 1.702.758 7.729 10.776 13.056 22.255 10.184 36.4-2.076 1.862-4.31 1.586-6.442 1.65-4.16.124-8.328-.112-12.483.12-5.454.305-7.436 2.466-7.46 7.849-.024 5.567 2.046 7.818 7.819 8.01 6.82.23 13.649.06 20.474.074 7.324.014 14.659.237 21.97-.065 6.424-.265 11.728 1.786 16.553 6.476.717 1.705 1.028 3.094.888 4.963-3.527 5.605-7.865 7.96-14.558 7.862-27.934-.412-55.877-.179-83.817-.16-2.324.002-4.648.172-7.44.303"/><path fill="#72969E" d="M155.274 487.235c-4.268-4.47-9.059-6.397-14.98-6.325-15.66.192-31.325-.062-46.985.134-4.794.06-6.473-1.699-6.373-6.441.352-16.795-1.945-14.37 14.151-14.576 4.332-.055 8.664-.023 13.467-.043 2.129-2.195 4.455-2.366 7.342-2.13 5.98-.38 11.536-.405 17.092-.342 2.83.032 5.515-.518 8.526-1.696 6.524-5.456 13.573-3.055 20.196-2.043 7.01 1.071 12.79 13.799 10.139 21.215-.613 1.715-1.473 3.34-2.228 5.462-.326.93-.58 1.423-1.152 2.201-3.357 4.919-8.373 4.144-13.203 5.03-.73.312-1.136.396-1.854.502-1.529-.06-2.782.04-4.138-.948"/><path fill="#547574" d="M337.998 61.973c-12.88-2.894-18.09-18.919-10.01-30.133 1.255-1.74 2.5-3.487 3.869-5.552 2.828-.37 5.538-.42 8.69-.375.8.449 1.093.852 1.364 1.678-3.13 4.147-6.032 8.003-7.694 12.805-1.95 5.635 2.837 15.608 9.064 17.341 1.957 1.02 3.37 2.154 4.903 3.71C349.87 67.464 350 73.3 350.623 79.08c1.372 12.754 5.406 24.672 11.776 35.795 1.407 2.458 2.825 4.901 4.028 7.908.74 1.595 1.116 2.866.96 4.649-4.732 8.624.031 19.47 9.557 22.163 3.544 1.003 7.18 2.587 10.851-.818 1.455-.286 2.53-.27 4-.149 14.77 8.274 29.672 14.923 46.445 16.514 4.098.388 8.346-.282 12.673 1.543 1.767 1.085 2.032 2.771 3.108 4.391 1.287 7.856 11.877 13.576 19.015 10.6 2.618-1.092 5.232-2.04 7.612-3.73 1.757-1.246 2.546-2.458 2.118-4.887-.269-1.193-.657-1.94-.72-3.208-.04-5.684 2.378-9.835 6.135-13.864 1.477-1.08 2.666-1.057 4.33-.357.713.32.976.494 1.483 1.074-6.738 5.466-7.585 12.63-6.763 20.45.238 2.27-.002 4.593-.115 7.348-4.925 1.471-8.03 5.589-12.622 7.232-8.923 3.192-21.534-3.537-23.472-13.3-1.027-1.552-2.396-1.414-3.717-1.428-21.887-.232-41.87-6.581-60.078-18.66-.41-.273-.942-.306-1.829-.376-7.964 2.404-14.837 0-21.355-3.476-4.727-2.52-7.943-14.816-6.045-22.226.483-3.185-1.582-4.966-2.843-7.003-9.565-15.443-15.374-32.035-16.227-50.309-.197-4.238-1.08-8.447-.93-12.982"/><path fill="#64898E" d="M459.33 120.97c-5.123-2.111-8.056-6.113-10.843-10.271-1.465-2.186-.715-4.08.647-5.942 4.222-5.77 6.807-12.126 6.955-19.368.07-3.493 2.3-4.432 5.34-4.427 6.475.01 12.955-.16 19.425.017 4.51.122 6.489-1.784 6.102-6.234-.014-.165 0-.332.003-.498.194-10.456.228-10.476 9.488-5.32.348 17.11.38 34.1.332 51.55-4.614 6.265-10.648 7.964-18.134 6.701-2.504-1.967-2.035-4.445-2.084-6.705-.165-7.49.143-14.987-.153-22.472-.215-5.44-2.661-7.576-7.87-7.38-4.53.172-6.607 2.056-6.91 6.792-.374 5.815.001 11.652-.196 17.475-.07 2.09.383 4.415-2.103 6.083"/><path fill="#64898E" d="M493.255 156.725c-1.3.272-2.35.297-3.795.327-4.474.053-6.386-3.684-9.798-5.599-4.808-6.912-3.182-14.102-2.115-21.6 6.393-1.703 12.12-4.694 18.903-4.184.38 9.038.417 17.708.406 26.843-1.13 1.65-2.192 2.854-3.601 4.213m3.592-94.218c-3.031.132-5.975-.545-8.343-2.378-2.076-1.608-1.769-4.187-1.268-6.42.567-2.529 2.826-1.65 4.517-1.718 1.476-.06 2.958.018 4.878.03.384 3.34.326 6.687.216 10.486"/><path fill="#527481" d="M496.861 125.614c-5.748 1.35-10.77 5.135-17.28 4.276-1.687-.853-1.704-1.956-.744-3.466 6.52-.117 11.861-2.7 17.533-5.386.407 1.316.483 2.735.491 4.576"/><path fill="#547574" d="M182.305 482.755c-.834 1.718-1.798 3.2-2.874 4.982-1.925.34-3.739.378-5.989.33-.781-.441-1.077-.831-1.394-1.616.115-2.245 2.257-2.85 2.807-4.918.22-.569.31-.796.626-1.313 1.518-.934 2.52-2.173 4.466-2.094.742.344 1.073.656 1.415 1.356.176.887.238 1.476.461 2.307.188.41.27.57.482.966"/><path fill="#547A83" d="M173.236 485.658c-.235.847-.234 1.268-.233 2.005-3.718.379-7.438.441-11.609.375.206-1.431 1.368-2.028 2.717-1.928 3.58.265 6.133-1.484 8.65-4.202 1.468.832 1.262 2.058.475 3.75"/><path fill="#527481" d="M493.314 157.005c-.213-2.082.414-3.709 3.145-3.985.927 1.869-.314 2.869-1.91 3.969-.517.096-.722.073-1.235.016"/><path fill="#547A83" d="M155.133 487.292c1.047-.053 2.225.199 3.685.682-.181.844-.644 1.458-1.372 2.197-.905-.774-1.544-1.675-2.313-2.88"/><path fill="#64898E" d="M440.488 16.63c1.952 1.867 3.472 3.608 4.94 5.392 1.067 1.297 2.218 2.788 1.602 4.477-.717 1.971-2.782 1.25-4.345 1.52-2.894.497-6.456-1.464-8.605 2.617-1.15 1.462-2.286 2.54-3.928 2.19-11.275-2.407-22.65-.952-33.99-1.134-2.628-.043-5.5.205-8.544-1.11-2.096-1.022-2.557-2.69-1.781-3.93 2.022-3.23 2.835-7.322 6.86-9.66 16.06-.974 31.7-.456 47.791-.362"/><path fill="#64898E" d="M356.723 24.093c3.542-5.867 8.201-8.452 14.923-7.766 5.39.55 10.876.165 16.763.302 2.268 1.778.71 3.192.128 4.714-1.212 3.164-3.512 5.857-4.099 9.728-.34 1.21-.634 2.003-1.03 3.216-5.982 2.61-11.752 1.564-17.326-.208-2.58-.82-5.015-2.478-7.226-4.886-.668-1.913-2.439-2.855-2.133-5.1"/><path fill="#50717B" d="M29.259 356.737c-3.41-1.602-5.873-.525-7.896 1.725-1.017 1.131-1.837 2.326-3.834 2.523-.773-3.959 2.977-5.13 5.047-7.13 3.031-2.928 4.18-5.907 4.165-10.07-.225-64.495-.315-128.99-.412-193.483-.007-4.664.171-9.328.389-14.286.241 9.84.45 19.974.458 30.109.042 55.22.035 110.439.043 166.107 1.829 2.776.99 6.118 3.222 8.722.516.82.788 1.31 1.203 2.217-.717 4.72 1.213 9.498-2.385 13.566"/><path fill="#64898E" d="M463.507 16.42c.423 1.595.538 3.252.431 4.895-.162 2.486.897 5.829-2.858 6.426-3.53.562-7.317 1.113-9.418-3.246-1.212-2.514-2.854-4.822-4.428-7.498 5.206-.358 10.536-.44 16.273-.577"/><path fill="#557B85" d="M356.492 23.888c1.28.703 2.224 1.593 3.33 2.764-.246 1.85-.62 3.44-2.62 4.42-5.281-.322-10.029-.067-13.189 4.5-3.427 4.953-3.803 10.122-.646 15.427.824 1.386 2.005 2.745 1.099 4.935-.391.539-.578.736-1.135 1.117-2.686 1.012-4.01-.645-5.089-2.062-6.11-8.036-5.977-13.088-.19-22.001.894-1.377 2.437-2.461 2.79-4.685.144-.823.146-1.244.147-1.98a82 82 0 0 1 10.269-.55c1.89.013 3.558-.287 5.234-1.885"/><path fill="#527481" d="M383.235 31.356c-.099-5.627 3.167-9.628 5.499-14.342 1.266-.34 2.415-.401 3.977-.331-1.523 3.98-3.461 7.83-5.519 12 .368 1.218.117 2.018-.802 3.038-1.244.578-2.09.515-3.155-.365"/><path fill="#658A8F" d="M451.345 167.795c-19.845.788-37.966-3.885-54.663-13.97-1.55-.936-2.933-2.146-4.6-3.5-1.139-4.269 3.663-5.033 4.388-8.492.532-1.183.844-2.07 1.02-3.387 1.28-7.143 2.818-13.73 9.081-17.93 1.463-.98 2.53-2.796 5.06-1.742 10.039 4.772 18.58.703 26.488-4.161 4.183-2.573 6.353-2.92 9.027 1.417 2.65 4.298 6.903 7.045 11.446 9.788 2.385.596 2.629 2.294 2.716 3.959.287 5.45.456 10.918-.065 16.349-.413 4.312-3.698 7.282-6.03 11.152-2.742 3.21-2.025 7.12-3.868 10.517m-86.058-43.577c-13.097-18.557-18.405-39.101-18.167-61.723 3.26-3.314 7.404-1.33 11.422-2.566 3.928-.88 7.174-2.082 10.353-3.849 4.886-2.715 10.24-2.043 15.802-.39 3.904 6.181 8.001 11.556 14.231 14.927 3.04 1.645 2.996 3.943 1.44 6.702-3.57 6.333-5.785 13.045-5.36 20.45.116 2.02.278 3.985 1.779 5.976 1.654 2.269.43 3.659-.774 5.081-3.917 4.631-8.267 8.502-14.767 8.84-1.142.06-2.25.478-3.749.802-3.224.11-5.131 1.825-7.048 3.66-1.326 1.27-2.426 3.297-5.162 2.09"/><path fill="#72959E" d="M484.161 68.945c-.006 1.985-.084 3.485-.007 4.976.188 3.645-1.597 5.06-5.123 5.021-7.977-.087-15.956-.06-23.934-.014-2.666.015-4.716-1.006-6.652-2.823-12.38-11.616-12.407-11.59-12.403-28.614 0-4.322.062-8.644.017-12.965-.032-3.107 1.367-4.559 4.52-4.529 6.647.063 13.297.083 19.944-.017 2.867-.043 4.692 1.11 5.813 3.722 2.944 6.855 7.95 11.792 14.532 15.157 2.372 1.212 3.307 3.058 3.281 5.635-.048 4.654.002 9.308.012 14.451"/><path fill="#72969E" d="M355.657 29.251c1.5-.82 2.627-1.426 4.039-2.175 6.067 6.483 13.88 6.224 21.971 6.05 1.341-1.068 2.612-1.124 4.384-1.165 9.614-1.201 18.777-.032 27.916-.47 3.406-.162 6.813.046 10.218.073 4.582.037 6.517 1.766 7.045 6.387.491 4.3.312 8.633.074 12.954-.19 3.448-2.131 5.4-5.438 5.12-10.621-.897-21.256-.273-31.88-.589-1.483-.044-2.708-.703-4.494-1.34a79 79 0 0 0-4.098-.123c-2.358.484-4.33 1.242-6.346.96-6.93-.964-12.615 1.946-18.491 5.715-.657.189-.935.216-1.629.182-9.853-4.844-13.794-14.712-10.179-24.4 1.215-3.254 3.074-5.845 6.908-7.179"/><path fill="#73969F" d="M375.892 116.298c9.05-.672 15.725-4.716 20.939-11.977 1.069-1.116 1.949-1.963 3-3.063.744-2.575 1.655-4.677 3.4-6.43 4.902-4.927 9.834-9.826 14.752-14.739 1.838-1.835 4.203-2.61 6.722-3.893 2.423-1.216 3.5-4.426 6.945-3.18 4.812 1.33 8.35 3.717 10.053 8.686.601 1.258 1.148 2.167 1.933 3.293.658.495.849.885.565 1.645-1.453 1.445-2.661 2.634-4.052 4.083-6.004 10.741-14.113 18.954-24.864 25.045a53 53 0 0 0-3.143 2.966c-7.16 5.147-11.603 11.527-12.021 20.688-.487.836-.938 1.197-1.904 1.575-12.005 2.403-21.638-3.723-23.987-14.726-.478-2.237-.104-4.32.298-6.892.083-1.34.435-2.12 1.364-3.08m76.793 41.141c7.756-9.332 6.486-20.058 6.252-31.05-.015-1.82-.005-3.163-.007-4.908.023-9.558.165-18.715.044-27.869-.053-4.038 1.501-5.698 5.59-5.643 16.701.225 14.236-1.765 14.427 13.744.096 7.823.08 15.648.163 23.954.026 1.474.006 2.467-.004 3.83.006 5.3-.056 10.23.026 15.157.03 1.876 1.104 3.407 2.508 5.095.585.628.977.958 1.211 1.397 1.276 2.398 4.871 4.57 3.228 7.257-1.965 3.214-3.609 7.187-7.865 8.599-7.353 2.437-18.925 3.334-25.669-7.125-.39-.953-.368-1.52.096-2.438"/><path fill="#64898E" d="M389.134 54.316c2.106-1.654 4.403-.436 6.679-.427 9.47.038 18.94.013 28.411.083 3.392.025 4.58-1.622 4.775-4.892.925-15.516.483-16.084-14.964-16.04-9.122.025-18.244.17-27.701.133-.73-.523-.883-.994-.565-1.859.496-.815.762-1.315 1.165-2.062 9.331 1.587 18.63.493 27.881.722 6.116.151 12.256-.266 18.733 1 .428 8.046.434 16.068.43 24.559-.986 2.217-3.219 1.724-4.724 3.2-2.317.568-4.389.908-6.855 1.268-3.442-1.742-6.815-1.472-10.127-1.497-6.493-.048-12.989-.145-19.864.481-1.31-1.46-2.22-2.918-3.274-4.669m35.392 21.649c-7.2 8.706-15.592 16.682-24.25 24.853-3.019-8.57.104-16.077 4.823-23.178 1.663-2.502 4.342-2.966 7.097-2.42 3.937.78 7.897.792 12.33.745m-9.082 40.019c7.284-8.617 15.611-16.64 24.252-24.812.27 3.468.26 7.128 1.158 10.707.97 3.862-.284 6.438-3.655 8.806-6.514 4.578-13.654 5.73-21.755 5.3"/><path fill="#64898E" d="M392.195 59.26c1.208-2.467 3.293-3.239 5.784-3.233 6.327.013 12.654-.012 18.981.017 2.299.011 4.359.496 4.975 3.6-3.707 2.046-7.654 3.587-10.717 6.34-4.006 3.603-7.588 2.951-11.552.18-2.73-1.91-5.284-3.945-7.47-6.903m22.074 9.341c5.012-2.938 9.953-5.237 15.564-5.53 2.066-.11 4.291.223 4.784 2.59.438 2.102-1.807 2.6-3.174 3.255-4.402 2.113-9.196 2.766-13.998 2.688-1.194-.02-4.59.858-3.177-3.003M444.1 87.234c-.16-.713-.177-1.088-.21-1.743 1.197-.911 2.113-1.82 2.717-3.063.572-1.176 1.044-2.658 2.77-2.298 1.693.353 2.304 1.74 2.51 3.323.772 5.914-1.252 11.092-4.263 15.993-.43.701-1.145 1.513-1.987.998-.603-.37-.986-1.285-1.224-2.035-1.138-3.584.398-7.23-.313-11.175m-2.109-5.452c-4.217-1.592-6.768-5.082-9.9-8.372 2.666-.616 4.693-4.009 8.003-2.442 4.324 2.046 4.947 5.185 1.897 10.814M359.769 60.34c7.062-7.287 15.882-6.692 24.89-6.514.34.597.346 1.045.358 1.828-8.896-1.03-16.758 1.994-24.704 6.226-.686-.282-.839-.729-.544-1.54m69.618-1.377c.267-2.092 1.823-2.86 4.224-2.942.04 2.503-1.732 2.966-4.224 2.942"/><path fill="#72959E" d="M74.918 447.254c2.303 2.02 3.07 4.265 3.055 6.926-.047 8.164-.102 16.33.03 24.492.061 3.763-1.309 5.504-5.248 5.4-6.493-.173-12.995-.096-19.492-.04-2.607.023-4.386-.948-5.594-3.337-3.12-6.172-8.011-10.613-14.22-13.506-2.665-1.242-3.68-3.072-3.654-5.871.062-6.83.08-13.663 0-20.493-.043-3.622 1.658-5.083 5.184-5.05 8.33.078 16.661.05 24.992.02 2.5-.01 4.483.942 6.204 2.71 2.79 2.866 5.65 5.66 8.743 8.749"/><path fill="#0E7998" d="M404.523 352.646c2.886 5.861 5.145 11.71 9.919 16.365 3.338.536 3.166 3.223 3.354 5.121.6 6.083 2.723 11.572 5.725 17.25.044 1.837-.807 3.063-.971 4.893-3.055 6.142-8.565 9.534-12.762 14.14-.943 1.033-2.147 1.853-3 3.496-.846.452-1.378.598-2.317.797-4.264.93-5.8-2.768-8.858-4.34-1.095-.87-1.865-1.528-3.046-2.276-3.249-2.546-7.682-3.468-7.78-8.653 2.276-5.047-.47-9.28-1.278-14.093-.371-12.509-7.742-20.703-15.696-28.55-1.108-1.094-2.126-2.662-4.242-1.802-.244.696-.325 1.193-.214 2.045 1.678 6.714.379 12.468-3.952 17.877-1.59 1.068-2.674 2.144-4.266 3.18-3.412 1.559-6.114 3.882-10.093 3.872-1.53-.274-2.69-.502-4.234-.543-8.505-1.529-13.792-6.488-15.923-14.26-2.249-8.203 1.518-17.44 8.052-22.003 2.419-1.69 5.214-2.004 7.943-2.627 1.13-.258 2.487-.374 2.67-1.789.174-1.34-.986-2.023-1.986-2.604-5.185-3.01-10.961-4.622-16.774-7.012-1.455-.485-2.39-1.389-4.022-1.417-1.512-.536-2.742-.934-3.365-2.603-4.611-4.176-10.366-5.853-15.343-8.926-1.661-1.026-3.345-2.015-5.258-3.319-6.507-2.103-12.767-3.92-17.977-8.797-1.297-.947-2.1-1.863-3.004-3.208-.256-.605-.32-.866-.43-1.535-2.454-6.441-2.35-6.341 2.565-11.417 4.855-5.013 10.125-9.595 14.761-14.852 2.731-3.096 6.386-5.3 11.333-4.977 4.683 2.026 7.644 5.576 11.2 8.948.898 1.193 1.637 2.044 2.703 3.054 3.27 3.092 6.133 6.21 10.972 6.735 6.111 6.047 12.25 11.625 19.912 15.86.897 1.444 2.173 1.219 3.55 1.634 12.24 5.962 23.481 12.873 34.091 21.437 1.13.981 1.938 1.791 3 2.832 4.006 5.191 8.988 9.369 9.482 16.297.213 2.988 3.084 4.108 5.56 5.77"/><path fill="#117A9A" d="M125.104 181.377c-3.323-2.04-4.318-5.55-6.889-8.202-1.316-.932-2.56-1.416-3.414-2.934-1.123-2.718 3.01-5.928-1.716-7.861-.532-.231-.729-.356-1.133-.76-1.386-2.385 1.493-6.25-3.434-6.912-2.702-.343-3.434-2.3-4.407-4.006-3.603-6.318-7.212-12.63-13.141-17.669-1.98-5.826.848-9.376 4.686-12.685 8.19-7.058 15.63-14.929 23.748-22.071 2.22-1.953 4.627-3.166 8.046-3.126 2.93 1.553 4.127 3.56 2.708 6.883-.21 8.707-1.24 17.13 2.226 25.516 2.396 2.728.067 5.16.272 7.856.187 1.378.543 2.355 1.387 3.486 2.307 2.895 4.13 5.7 5.706 9.07.634 1.096 1.14 1.857 1.96 2.814 1.72 2.236 3.16 4.264 4.942 6 .9.877 1.745 2.42 3.234 1.514 1.117-.678.715-2.178.395-3.234-1.469-4.853.397-9.104 2.238-13.372.613-1.423 1.611-2.486 3.451-3.092 2.197.14 2.928-.83 3.077-2.904 7.827-9.151 26.744-4.907 31.157 7.987 4.353 12.714-1.68 24.289-14.582 28.685-1.256.428-2.528.813-3.784 1.906-.308.388-.412.545-.595.953-.047.423-.014.595.098 1.003.728 1.335 1.701.706 2.927.7 5.215 2.266 10.612 3.209 15.444 6.438 2.108 4.912 3.022 5.147 8.193 2.164.944.025 1.44.22 2.147.859.308.585.356.855.19 1.476 6.605 3.595 13.183 7.239 19.44 12.084 1.467 1.384.91 2.942 1.218 4.692 3.56 6.736-.045 10.168-4.741 14.025-5.815 4.777-10.77 10.596-17.596 14.794-.588.27-.829.37-1.464.504-1.805-.074-2.754-1.03-4.103-2.047-2.53-2.222-5.578-3.346-6.806-6.788-4.434-7.095-10.8-11.572-17.79-15.81-1.573.848-2.835 1.185-4.456.488-5.322-2.29-11.136-3.476-16.146-7.332-1.591-1.127-2.988-1.865-4.744-2.693-2.773-1.47-5.068-3.02-7.497-5.033-1.275-1.252-.975-2.963-2.508-4.033-.469-.333-.66-.465-1.054-.88-.65-1.553-.844-3.03-2.953-3.3-.57-.148-.796-.215-1.322-.48-1.695-1.282-.98-3.373-2.615-4.673"/><path fill="#020303" d="M157.034 140.714c-5.448 4.897-5.107 10.844-3.928 16.948.216 1.119.796 2.169.999 3.288.288 1.589-.93 2.35-2.04 3.082-1.409.927-1.99-.182-2.765-1.08-2.874-3.332-5.812-6.61-8.954-10.178-1.596-.218-2.352-1-2.815-2.521-.674-3.815-3.39-6.151-5.134-9.422-2.83-.479-2.515-2.64-3.037-4.63-.488-3.264 1.793-5.184 2.89-7.941 2.522-.531 4.86-.6 7.14-1.002 8.06-1.42 13.642-5.784 15.555-13.98.73-3.126 2.387-4.03 5.287-3.336 20.383 4.883 37.899 17.99 39.874 41.81.812 9.803 5.339 17.998 12.072 24.945 1.69 1.745 2.178 2.961.145 4.305-3.538 2.337-4.872 8.029-11.012 6.952-.548-.184-.695-.298-1.112-.348-.73.024-1.188-.017-1.986.009-3.188-.215-6.304.605-8.912-2.244-5.153-2.203-9.989-4.114-15.156-6.17-1.92-.268-3.643-.02-4.898-1.977-.384-.355-.526-.455-.908-.657-2.122.154-3.07-.552-2.485-2.79 1.02-2.91 3.112-2.846 5.344-3.017 8.2-.63 14.202-4.833 16.944-12.497 2.415-6.755 1.435-13.467-3.629-19.006-5.335-5.836-15.735-8.628-23.358-2.637-1.236 1.673-2.176 3.16-4.12 4.094"/><path fill="#010303" d="M344.389 378.816c3.474.926 6.036-.628 8.83-2.396.739-1.69 1.783-2.507 3.48-3.079 5.433-4.267 5.053-9.897 4.368-15.95-1.023-1.312-1.99-2.212-1.351-4.058 2.516-3.732 4.633-3.587 7.697-.723 6.948 6.496 12.287 14.115 16.974 22.27 1.854 3.225 2.317 6.466-.832 9.765-10.714.504-19.553 3.57-23.965 14.124-.992 2.374-2.683 2.612-4.82 2.258-20.082-3.33-36.871-14.75-38.842-38.06-.828-9.79-4.935-18.2-11.973-25-2.136-2.063-2.092-3.31-.084-5.146 3.624-3.312 6.09-8.818 13.057-6.252 1.43.344 2.411.54 3.7.774 1.77-.82 2.916-.357 4.147 1.1 8.1 2.308 15.239 6.071 22.533 9.45 1.362.63 2.485 1.55 2.003 3.482-.506 2.032-1.464 3.23-3.705 3.22-4.002-.018-7.946.384-11.319 2.823-6.287 4.549-8.404 10.965-7.027 18.268 1.321 7.012 5.907 11.436 13.305 13.1 1.382-.655 2.427-.901 3.824.03"/><path fill="#020302" d="M98.365 298.411c-4.899-9.593-2.004-18.827-.009-28.05.393-1.813 1.944-1.425 3.268-1.307 1.852.166 2.535 1.181 2.476 3-.414 12.837 5.958 22.414 14.8 30.84 10.005 9.532 21.699 12.558 34.904 8.729 3.653-1.06 6.59-.48 9.33 1.525 3.015 2.206 3.803 5.236.882 8.052-6.921 6.676-14.039 13.149-21.051 19.731-1.208 1.134-2.052.982-3.39-.03-9.679-7.332-20.871-11.477-32.335-14.986-2.149-.658-3.427-1.18-2.423-4.039 3.171-9.03.063-16.567-6.452-23.465"/><path fill="#020201" d="M60.002 285c0-10.152.096-19.806-.054-29.456-.047-3.001.82-3.532 3.721-3.026 9.01 1.571 14.866 7.562 20.568 13.91 1.118 1.246.598 2.493.321 3.753-3.025 13.756-2.892 26.935 5.921 38.992 3.046 4.167-.727 10.757-6.442 11.17-7.304.53-14.568-.779-21.816-1.702-2.756-.351-2.203-2.442-2.207-4.185-.023-9.652-.012-19.304-.012-29.456"/><path fill="#030404" d="M116.728 168.9a78 78 0 0 1 1.148 3.752c-3.973 1.334-6.569-.443-8.536-3.86-2.394-4.156-5.219-8.077-7.425-12.324-1.628-3.135-3.828-4.042-7.163-3.887-5.69.263-11.646-1.184-15.568 5.128-1.444 2.324-2.768 4.3-2.874 7.128-.243 6.517-7.878 13.217-14.298 12.954-1.968-.08-1.609-1.384-1.597-2.387.205-16.558-1.761-33.328 4.71-49.66.83-2.59-.103-5.423 2.816-7.107 1.425-.102 2.465-.22 3.811.282 2.061.934 3.843 1.592 5.821 2.657 1.38.588 2.635.467 3.9 1.39 1.792.446 2.622 1.716 4.104 2.654 3.33 1.135 5.524 3.063 7.155 6.209 7.526 5.504 11.21 13.402 15.762 21.068 3.457 1.675 2.983 5.028 4.197 7.924.136.348.247.2.182.266 3.006 1.608 2.653 4.897 3.855 7.813"/><path fill="#020302" d="M129.949 102.669c-1.153-1.972-1.217-4.242-3.314-5.698-1.46-.99-3.021-1.17-4.095-2.678-.371-2.543-2.128-3.867-3.311-5.912-.21-1.004-.367-1.665-.695-2.629-.338-1.75-1.49-2.584-2.353-3.992-1.134-3.358-2.324-6.315-4.462-9.196-.584-1.237-.71-2.144.13-3.323 9.496-8.082 20.395-10.54 32.228-10.326 7.324.132 14.656-.27 21.984-.268 2.246 0 5.528-1.37 5.973 2.499.395 3.432.693 7.09-3.205 9.196-2.676 1.445-5.626 1.965-8.495 2.787-9.546 2.734-16.78 7.835-18.913 18.303-.776 3.808.908 7.2 1.341 10.797.315 2.612 1.247 5.713-1.668 7.19-2.904 1.471-5.457-.477-7.575-2.431-1.305-1.204-2.334-2.708-3.57-4.32"/><path fill="#040403" d="M232.138 96.159c2.635-2.94 3.368-6.126 3.152-9.559-.228-3.61 1.715-4.18 4.709-3.685 5.753.953 9.13 4.314 9.966 10.083.12.823.295 1.648.31 2.475.077 3.995.999 8.534-.987 11.791-2.531 4.153-7.25.885-10.935.92-11.584.11-22.387 2.952-32.458 8.444-3.243 1.769-5.26 1.3-7.744-1.16-8.873-8.79-19.47-14.249-31.95-15.91-4.994-.665-9.11-2.716-11.385-8.51 7.387 1.35 14.202 2.427 20.942 3.863 11.312 2.41 21.804.052 31.671-5.39 3.378-1.862 4.947-1.81 6.68 1.993 3.512 7.7 10.198 9.356 18.029 4.645"/><path fill="#547574" d="M129.668 356.881c4.128.803 7.882 1.51 11.615 2.314 8.797 1.894 11.674 8.44 12.783 16.363.253 1.81.578 3.61.952 5.797 2.11 5.845 5.816 10.38 8.44 15.533 6.763 13.276 10.958 27.171 11.582 42.117.172 4.118.895 8.205 1.506 12.619 2.931 1.804 4.964 3.933 6.475 6.997.11.327.043.751.012 1.75 1.923 5.457 3.702 9.937 1.525 14.86-.725 1.637-1.11 3.598-3.815 3.573-1.822-.72-2.226-1.717-1.713-3.263 2.235-6.727-.265-12.187-4.956-17.342-.45-.387-.633-.538-1.1-.909-.656-.528-1.04-.822-1.715-1.341-1.615-1.87-3.945-1.838-5.529-3.656-1.528-5.515-1.821-10.806-2.295-16.092-1.172-13.085-5.222-25.309-11.664-36.732-1.556-2.76-2.93-5.575-4.108-8.94-.258-1.665-.498-2.958-.072-4.598-.09-1.523.05-2.67.074-3.822.268-13.514-7.001-18.583-20.823-16.662-1.655.054-2.937.07-4.604-.087-8.538-3.778-16.007-8.862-24.629-11.649-9.243-2.988-18.656-4.802-28.346-5.232-1.833-.082-3.66-.12-5.74-1.002-2.587-1.185-2.403-3.935-4.31-5.657-.62-.551-.984-.852-1.614-1.374-.414-.394-.56-.567-.864-1.038-.514-1.314-1.036-2.272-1.334-3.635-.116-.493-.162-.69-.319-1.17a7.4 7.4 0 0 0-.583-1.091c-4.961-4.896-10.24-5.987-16.33-2.822-1.876.975-3.84 2.99-6.429.604 10.53-9.925 20.327-7.95 31.063 4.423 5.179 2.472 10.585 1.47 15.752 2.072 14.606 1.702 28.075 6.328 40.843 13.356 3.33 1.833 6.52 3.914 10.27 5.736"/><path fill="#030403" d="M381.346 177.775a105.2 105.2 0 0 0 23.793 9.755c3.458.948 4.721 2.112 3.032 6.031-5.012 11.628-3.756 15.258 7.057 22.222 2.032 1.31 2.376 2.97 2.581 4.993.73 7.206-.16 14.259-1.838 21.258-.478 1.997-1.123 3.336-3.643 2.962-2.589-.384-2.613-1.92-2.44-3.919.835-9.693-.635-18.964-6.062-27.195-9.618-14.589-23.214-19.862-40.545-16.25-5.003 1.043-9.705 3.623-15.032 3.047-1.094-.118-2.615.49-3.077-.9-.419-1.26.902-1.984 1.716-2.791 7.445-7.381 14.994-14.663 22.264-22.213 2.459-2.553 4.242-3.128 6.892-.446 1.363 1.38 3.307 2.186 5.302 3.446"/><path fill="#010201" d="M452.273 238c-.002 7.316-.099 14.133.034 20.947.07 3.528-1.47 4.072-4.283 2.793-3.623-1.65-7.176-3.385-10.216-6.082-4.84-4.296-8.323-8.08-5.517-15.909 3.325-9.276 1.742-18.97-3.833-27.678-1.666-2.604-3.366-5.293-4.144-8.449-1.314-5.326 1.37-10.126 6.693-10.49 6.123-.417 12.293-.137 18.442-.18 3.58-.025 2.75 2.73 2.763 4.651.087 13.299.055 26.598.06 40.397"/><path fill="#030302" d="M262.518 416.066c.397-2.18.647-4.008 1.19-5.743 1.815-5.794 3.384-6.751 9.51-6.037 13.058 1.523 25.921 2.021 37.508-5.962 2.357-1.624 4.753-.822 6.744 1.2 7.918 8.04 17.977 11.56 28.736 13.689 2.908.575 5.727 1.616 8.57 2.499 1.963.609 2.71 2.071 1.898 3.885-.732 1.631-1.68 3.43-4.138 2.42-.917-.378-1.93-.534-2.828-.946-14.373-6.597-28.226-3.814-41.797 2.468-2.367 1.096-3.413 1.39-4.654-1.44-2.974-6.774-8.004-9.268-14.823-7.97-6.16 1.174-9.64 5.247-9.875 12.473-.123 3.801-1.648 4.026-4.673 3.196-6.985-1.916-10.331-5.727-11.368-13.732"/><path fill="#030402" d="M236.474 145.557c11.094 8.946 22.443 3.46 25.852-12.44 5.585 5.437 6.31 12.226 6.352 19.182.011 1.816-1.66 2.762-3.032 3.714-11.742 8.147-24.768 11-38.818 9.071-5.865-.804-8.127-3.396-8.493-9.237-.27-4.337-.721-8.61-2.12-12.73-3.925-11.552 8.547-22.1 16.328-23.445 1.218-.21 2.628.234 3.857.648 2.443.822 3.801 1.424.888 4.114-7.21 6.656-7.353 14-.814 21.123"/><path fill="#040503" d="M282.931 373.515c-4.231-7.447-9.674-10.113-17.124-8.676-6.771 1.305-10.911 6.693-12.1 15.993-6.208-5.065-6.24-12.106-6.608-18.94-.092-1.712 1.547-2.875 2.9-3.821 13.557-9.483 28.601-10.725 44.336-7.821 4.192.773 5.527 3.661 4.168 7.433-2.013 5.587-2.401 10.987.34 16.419.44.871.873 1.903.093 2.817-4.51 5.291-8.385 11.223-14.577 14.848-2.331 1.364-4.959 1.49-8.715 1.87 7.36-5.532 10.23-11.718 7.287-20.122"/><path fill="#040403" d="M234.178 424.794c5.814-2.067 10.208-.694 14.358 3.353 6.186 6.032 13.185 11.135 21.307 14.265 5.203 2.005 2.775 6.083 2.84 9.203.068 3.342-3.179 2.104-5.062 2.117-13.791.094-27.592-.232-41.372.19-5.175.16-6.086-2.408-6.577-6.36-1.078-8.663 3.852-14.398 9.568-19.704 1.301-1.208 3.028-1.958 4.938-3.064"/><path fill="#010303" d="M196.89 232.053c.115.332.19.54.3.55.48-.341.908-.407 1.74-.218 2.315.676 3.533 2.774 6.125 2.958 2.556 4.036 5.847 6.618 10.387 8.262.835 2.087 2.905 2.998 3.206 5.431 1 3.55.827 6.697.18 10.287 0 .729.018 1.022.069 1.76.277 3.114.942 5.876-2.03 8.042-.44.095-.628.081-.661.17.53 2.523-1.63 2.568-3.271 3.47-8.662 6.713-8.215 6.188-16.774-1.096-8.229-7.004-11.488-15.336-11.238-25.765.126-5.295-.607-10.608-.85-15.918-.08-1.734-.758-3.725 1.679-5.1 3.366.146 4.625 3.243 7.587 4.163 1.811.407 2.82 1.296 3.551 3.004"/><path fill="#040503" d="M260.54 204.448c-3.456-3.465-7.076-5.98-11.402-7.526-4.958-1.773-8.446-10.631-5.366-14.887 2.033-2.808 6.087-1.688 9.283-1.977 2.679-.242 2.016 1.972 2.287 3.491 1.187 6.644 5.613 11.347 11.797 12.583 6.21 1.24 12.473-1.482 15.894-6.91 3.283-5.21 2.875-12.032-1.05-17.292-.396-.532-.956-.952-1.298-1.51-.904-1.481-1.262-3.295-.76-4.786.542-1.616 2.348-.78 3.541-.577 1.676.285 3.792.027 4.14 2.672.238 1.798.828 3.554 1.308 5.316 2.454 9.002 6.24 11.544 15.644 10.593 1.111-.112 2.244-.015 3.863-.015-4.342 4.498-8.165 8.681-12.227 12.617-6.334 6.137-12.875 12.06-19.226 18.179-1.574 1.516-2.332 2.657-4.535.345-3.522-3.698-7.705-6.766-11.893-10.316m-3.393-128.781c-3.754-2.257-7.492-3.638-11.36-4.533-2.695-.623-3.33-1.778-2.859-4.516 1.272-7.378 1.127-7.401 8.797-7.403 11.984-.004 23.97.11 35.95-.105 2.814-.05 4.318.811 5.32 3.277 1.438 3.544 3.116 6.987 2.727 10.997-.399 4.12-2.142 7.286-6.075 8.942a70.6 70.6 0 0 1-17.698 4.872c-2.888.405-4.723-.427-6.191-2.89-2.066-3.466-4.833-6.328-8.611-8.641"/><path fill="#030302" d="M320.653 128.942c9.651-1.973 15.316 2.052 19.96 9.964 5.437 9.262 5.996 8.943-1.49 16.351-2.48 2.456-5 4.873-7.505 7.305-3.016 2.93-5.47 6.419-10.89 4.663-2.942-.953-5.845 1.903-8.881 2.689-2.967.768-5.836 1.493-8.052-1.646-2.13-3.016-1.134-5.456.881-8.065 5.665-7.336 9.947-15.257 9.504-24.94-.194-4.239 3.357-4.82 6.473-6.321"/><path fill="#010202" d="M313.317 281.313a176 176 0 0 0-8.637-8.411c-2.273-.47-3.649-2.05-5.827-2.793-1.118-1.434-2.1-2.579-2.498-4.453a96 96 0 0 0-.634-2.173c-.13-.872-.144-1.38-.182-2.27-.166-1.144-.244-1.915-.441-3.07-.013-.663.014-.93.18-1.576.573-1.395 1.296-2.214 2.214-3.396.286-1.034.329-1.737.313-2.788-.112-.516-.165-.684-.115-1.096 1.362-5.475 6.366-7.24 9.773-10.44 1.177-1.104 2.73.476 3.805 1.498 3.363 3.198 6.664 6.461 10.05 9.634 4.092 3.833 6.052 8.528 6.324 14.108.388 7.953.985 15.896 1.565 24.287-.315 4.401-2.024 5.02-4.983 2.436-2.116-1.848-4.22-3.71-6.628-5.689-1.907-.877-3.668-1.458-4.279-3.808"/><path fill="#040503" d="M321.068 83.697c1.029 8.2 2.848 15.777 5.11 23.25.788 2.607.706 4.607-2.175 6.03-3.554 1.755-6.945 3.853-10.337 5.918-3.17 1.93-5.219 1.522-6.235-2.347-1.888-7.182-5.094-13.68-10.674-18.748-1.915-1.74-2.088-3.028.162-4.527 11.287-7.519 15.683-17.617 11.342-30.867-.749-2.284.14-3.105 2.255-3.156 1.663-.04 3.33.043 4.991-.024 2.938-.117 3.894 1.124 3.998 4.15.228 6.636.988 13.253 1.563 20.321"/><path fill="#020403" d="M396.488 407.758c2.23 2.076 4.462 3.804 7.014 5.69 5.159.48 6.133 3.562 5.904 7.719-.332 6.022-3.197 10.856-7.24 15.56-3.486 5-7.451 8.93-12.364 12.2-1.746-1.44-1.418-3.575-1.81-5.362-2.604-11.858-8.296-21.996-17.14-30.241-2.751-2.565-2.524-4.438-.301-7 3.647-4.203 8.056-6.812 14.029-7.287 3.22 2.004 5.293 4.967 8.987 6.352 1.717.056 2.448.864 2.92 2.37"/><path fill="#050604" d="M269.567 332.63c-1.934.165-3.443.112-4.923.295-2.752.339-4.067-.474-4.66-3.51-1.29-6.602-6.537-11.23-12.89-12.123-6.482-.911-12.313 2.18-15.685 8.316-2.91 5.294-2.036 11.462 1.991 16.768.962 1.268 4.622 2.501 2.065 4.25-1.704 1.166-6.109 1.95-7.455-1.32-3.16-7.677-9.008-12.088-16.25-15.17-2.56-1.089-1.68-2.247-.242-3.583 9.374-8.706 18.77-17.389 28.057-26.188 1.52-1.44 2.302-1.566 3.932-.089 7.972 7.225 16.504 13.69 25.467 19.707 4.213 2.828 2.322 8.177.593 12.647"/><path fill="#030403" d="M66.338 239.494c-5.385-.474-6.619-3.184-6.464-8.014.374-11.65.212-23.32.057-34.979-.038-2.874.857-4.38 3.467-5.713 3.663-1.871 7.119-4.254 10.366-6.797 2.178-1.705 3.219-1.969 4.158.978 3.236 10.15.314 20.44-7.88 27.26-3.925 3.267-5.196 9.674-2.905 14.64 2.377 5.153 8.401 8.001 14.643 6.923 10.112-1.746 13.978 1.164 14.916 11.576.39 4.341-3.727 6.104-6.166 8.417-2.177 2.065-3.575-1.448-4.852-2.814-5.262-5.631-11.497-9.474-19.34-11.477"/><path fill="#020404" d="M385.27 330.369c-10.348-8.838-21.683-15.543-33.856-21.618-2.224-.445-1.85-1.908-1.748-3.513 1.47-3.866 4.353-3.91 7.196-3.157 14.677 3.888 29.054 8.595 40.368 19.362 4.803 4.571 8.832 9.922 10.407 16.617 1.187 5.044.95 9.91-2.693 14.482-5.357 1.655-7.85.648-8.313-4.239-.604-6.358-4.247-10.744-8.275-15.444-1.515-.412-2.406-1.055-3.086-2.49"/><path fill="#040503" d="M208.547 400.352c2.358 7.552 7.752 12.24 13.505 17.045-3.219 2.87-6.758 5.349-9.434 8.55-5.732 6.857-6.657 14.905-4.6 23.45.415 1.72 1.772 4.685-1.705 4.182-2.926-.423-7.962 3.223-8.61-3.001-1.065-10.236-.56-20.59-2.182-30.803-.888-5.594-2.397-11.016-4.267-16.327-.772-2.193-.52-3.274 1.741-4.128 2.31-.871 4.412-2.275 6.672-3.296 6.41-2.894 6.424-2.864 8.88 4.328"/><path fill="#030403" d="M116.425 216.582c1.548 1.982 1.581 3.493-.168 5.04-6.108 5.4-17.506 6.134-24.141 1.737-5.237-3.47-6.602-8.65-5.033-13.926 3.38-11.363 4.272-22.772 3.142-34.485-.171-1.78-.722-4.38 1.623-5.28 2.65-1.015 3.926 1.502 5.037 3.14 3.142 4.63 4.632 10.069 4.971 15.48.724 11.565 6.164 20.424 14.57 28.294"/><path fill="#020302" d="M421.293 392.321c-4.802-6.967-6.14-14.521-6.458-22.808.503-3.966 5.092-8.275 8.568-8.565 1.527-.127 2.489.608 3.214 1.87 5.363 9.324 13.975 14.81 23.19 19.572 5.128 2.65 5.271 3.443 1.245 7.898-3.34 3.695-6.708 7.366-10.238 11.347-2.638 3.616-6.314 4.4-9.776 1.9-3.975-2.87-7.522-6.246-9.745-11.214"/><path fill="#030402" d="M181.05 355.052c4.408-4.896 9.144-8.19 15.836-7.469 2.883.31 5.076-1.616 7.11-3.218 3.073-2.423 4.894-.28 6.828 1.434 2.446 2.168.592 3.731-.91 5.387-7.172 7.904-12.495 16.711-13.515 27.65-.215 2.303-8.226 8.575-10.616 8.67-1.586.063-1.812-1.22-2.405-2.148-3.666-5.728-7.099-11.62-11.753-16.65-1.746-1.887-2.044-3.421.365-5.302 3.135-2.447 5.891-5.379 9.06-8.354"/><path fill="#040503" d="M156.265 242.587c1.32 8.457 1.293 8.724-6.178 12.206-12.69 5.917-25.741 5.448-38.926 1.86-2.77-.754-3.048-2.146-1.264-4.16 1.98-2.233 3.913-4.527 6.082-6.566 1.79-1.682 3.337-2.393 5.674.205 3.97 4.414 10.1 5.186 14.539 2.79 4.36-2.353 6.552-6.965 5.72-12.231-.717-4.542-3.346-7.844-7.772-8.645-4.372-.792-3.659-3.617-3.355-6.287.395-3.468 3-1.697 4.633-1.455 17.493 2.597 17.587 2.73 20.847 22.283m117.048-120.899c-2.284-1.94-4.127-4.002-6.422-5.191-4.29-2.224-3.099-4.347-.284-6.538 7.909-6.155 17.942-4.923 25.998 4.072 6.28 7.012 5.806 15.254 3.652 23.567-1.29 4.975-3.246 9.761-5.666 14.322-.812 1.53-1.15 3.98-3.55 3.441-2.347-.525-3.422-2.608-3.347-4.963.166-5.247-1.164-10.2-2.687-15.13-1.534-4.966-3.654-9.61-7.694-13.58"/><path fill="#050604" d="M242.43 391.577c1.304 1.305 2.485 2.28 3.326 3.49 1.94 2.79 2.341 5.8.731 8.931-1.517 2.951-4.335 3.513-7.173 3.534-6.308.047-11.737-2.474-15.868-7.078-12.518-13.95-9.552-29.72 2.23-42.255.579-.615 1.293-1.274 2.134-.9 1.116.495.821 1.696.848 2.646.188 6.65.608 13.213 3.376 19.46 2.23 5.032 5.62 8.92 10.396 12.172"/><path fill="#040503" d="M428.307 307.537c.393 10.634-1.329 20.598-3.405 30.52-.287 1.369-.271 3.435-2.002 3.357-1.619-.074-2.837-1.79-3.203-3.43-.391-1.759-.19-3.64-.41-5.449-1.212-9.88-5.482-18.304-12.288-25.495-1.714-1.81-3.533-3.528-5.148-5.42-2.005-2.35-3.447-4.924-1.934-8.158 1.39-2.97 3.737-4.376 6.98-4.781 13.145-1.642 20.463 4.61 21.41 18.856m-54.144-38.177c-5.017 8.99-2.74 16.154 6.061 20.388 1.055.508 3.135.307 2.835 2.162-.33 2.04-2.315 1.483-3.712 1.512-3.494.073-6.995.12-10.486-.009-5.336-.198-8.512-2.883-8.867-8.16-.412-6.134-.266-12.308-.31-18.464-.021-2.848 1.716-4.672 4.05-5.803 12.507-6.06 25.6-6.485 38.971-3.809 2.454.491 3.269 1.675 2.066 4.27-2.265 4.882-8.453 7.482-13.09 5.201-6.985-3.434-11.42-2.823-17.518 2.713"/><path fill="#030402" d="M330.853 446.375c-2.232-3.135-4.251-5.973-6.421-8.69-1.052-1.316-1.721-2.085.17-3.446 5.078-3.65 16.248-4.195 20.662.141 3.636 3.572 7.51 4.132 12.117 4.094 10.657-.088 14.535 3.481 15.956 14.518-12.658 0-25.268.074-37.877-.043-3.99-.037-2.726-4.31-4.607-6.574"/><path fill="#050604" d="M375.02 234.009c5.14 4.748 10.617 4.969 16.462 2.548 1.011-.42 2.123-1.691 3.082-.494.766.956-.148 2.134-.704 3.154-4.554 8.367-16.305 11.927-25.23 7.618-9.467-4.571-14.131-15.544-10.527-24.617 2.796-7.04 7.924-11.33 15.223-13.056 1.4-.331 3.207-.915 4.147.601 1.035 1.67-.625 2.596-1.656 3.635-6.46 6.51-6.789 13.031-.797 20.61"/><path fill="#040503" d="M124.03 272.111c8.185-7.603 18.475-8.58 26.575-2.762 7.355 5.283 10.249 15.374 6.392 24.071-2.926 6.598-8.1 10.787-15.497 11.721-1.266.16-2.814.531-3.38-1.196-.445-1.35.688-2.036 1.5-2.875 5.883-6.08 7.008-12.992 3.113-18.83-3.833-5.742-10.929-7.407-18.601-4.467-.95.363-1.994 1.81-3.047.556-.868-1.033-.065-2.196.613-3.158.669-.948 1.384-1.865 2.331-3.06"/><path fill="#020403" d="M217.277 203.884c.402-1.63 1.29-2.541 2.534-3.512 7.653-1.954 13.775 1.775 19.737 5.22 8.33 4.811 15.418 11.348 22.632 17.672 2.095 1.836 1.732 3.135-.151 4.745-1.636 1.398-3.088 3.011-4.819 4.8-1.141 1.084-1.01 2.826-2.936 3.077-.753.118-1.183.226-1.946.342-1.867.391-3.095-.127-4.347-1.529-1.37-1.755-2.896-2.778-4.724-3.981-1.581-3.23-3.785-5.332-7.077-6.755-1.762-1.108-2.367-2.999-4.396-3.857-1.54-1.095-2.214-2.562-3.651-3.77a53 53 0 0 0-4.677-3.667c-.602-4.126-5.589-4.683-6.179-8.785"/><path fill="#030302" d="M447.172 315.088c3.774-.835 5.222.16 5.173 3.895-.18 13.648-.182 27.3-.018 40.947.051 4.28-1.597 4.87-5.041 3.312-4.141-1.874-7.77-4.314-10.44-8.151-2.514-3.612-3.03-7.137-1.1-11.196 3.25-6.84 5.14-14.12 4.703-21.692-.284-4.923.93-7.572 6.723-7.115"/><path fill="#030505" d="M136.806 192.666c1.955 2.107 4.237 3.162 6.738 4.476 1.926.71 4.04.23 4.935 2.62 5.885 4.162 12.703 6.04 19.262 9.324-.621 3.19-3.183 4.643-5.963 5.031-13.197 1.844-33.533-4.837-39.991-19.188-2.638-5.862-2.007-9.15 2.715-12.734 2.707-1.168 3.272.672 4.106 2.587.084.365.085.462.133.462 1.649.722 2.95 1.779 3.985 3.606.193.259.235.181.2.208 1.165 1.175 3.145 1.462 3.88 3.608"/><path fill="#050604" d="M424.554 260.829c3.349-.445 4.283 2.45 6.216 3.82 5.56 3.943 11.246 7.67 17.583 10.237 2.814 1.139 4.13 2.777 3.972 5.979-.244 4.986-.038 9.994-.034 14.992.005 8.01 0 8.01-8.513 7.675 1.262-1.65 2.736-3.045 3.56-4.755 2.149-4.461 2.367-8.881-.853-13.134-3.595-4.748-8.308-5.868-13.744-4.41-3.5.938-7.075 3.127-10.107-.512-3.221-3.866-4.267-8.724-3.853-13.53.24-2.798 3.526-4.202 5.773-6.362"/><path fill="#060704" d="M230.264 67.005c-1.344 3.168-3.748 3.69-6.365 3.455-4.595-.412-8.882.506-13.122 2.25-5.59 2.3-11.517 1.097-17.307 1.264-1.053.03-2.134-.37-2.58-1.272-1.733-3.508-1.202-7.155-.146-10.698.962-3.23 3.806-2.669 6.26-2.672 9.164-.014 18.329-.033 27.493.018 6.73.037 7.216.684 5.767 7.655"/><path fill="#050604" d="M174.098 305.797c-3.214-1.936-4.118-4.186-3.236-7.71 2.825-11.287 4.246-22.597-1.398-33.6-.751-1.465-.792-3.244-.196-4.889 1.088-3 3.043-3.763 5.087-1.162 9.607 12.223 15.67 27.381 7.133 43.897-1.548 2.995-3.42 4.942-7.39 3.464"/><path fill="#4B8584" d="M421.114 392.386c4.464 3.019 8.168 7.355 13.181 10.139 2.19 1.216 3.95 1.577 6.06-.463-.017.61-.107 1.726-.652 2.033-13.598 7.647-22.734 20.312-34.193 30.355-.98.859-1.635 2.073-3.414 2.381 2.068-4.995 3.863-10.229 4.634-15.844.401-2.915-.075-5.173-2.729-7.122.294-.427.768-.593 1.616-.825 6.234-4.428 11.975-8.907 15.67-15.78a245 245 0 0 1-.173-4.874"/><path fill="#060704" d="M342.207 219.176c-4.899 9.826-4.933 19.507-1.537 29.356.27.784.38 1.62.612 2.418.487 1.67.91 3.304-1.198 4.227-1.785.782-3.268.243-4.467-1.145-3.286-3.801-4.608-8.493-5.126-13.262-.867-7.989-.216-15.935 2.257-23.655.202-.632.361-1.293.665-1.875 1.797-3.442 3.878-7.819 8.363-5.916 4.792 2.033 1.654 6.188.43 9.852"/><path fill="#040707" d="M280.355 303.815c4.533 4.927 10.84 6.577 15.947 10.609-18.606-.055-32.025-10.102-43.21-24.057-2.94-3.667 1.478-4.456 2.885-6.365 1.812-2.459 3.22-1.566 4.61.864 1.543 1.128 3.292 1.06 4.79 2.324 1.388 2.06 2.157 4.252 4.91 4.998.829 1.888 1.793 3.335 3.09 4.957 1.437 1.137 2.459 2.209 3.305 3.846.125.297.061.283.062.315 1.438.292 2.772.717 3.61 2.509"/><path fill="#080907" d="M308.947 440.179c4.328 2.6 6.545 6.67 8.952 10.59 1.201 1.958.968 3.047-1.626 3.037-9.129-.036-18.258-.093-27.385.019-3.52.043-2.88-2.297-2.985-4.386-.117-2.33-.076-4.346 3.197-4.2 6.981.309 13.412-1.677 19.847-5.06"/><path fill="#7E9374" d="M248.643 232.8c1.204 1.107 2.129 1.986 3.203 3.15-.907 5.506-5.43 8.013-8.795 11.302-6.892 6.734-14.158 13.085-21.22 19.647-1.363 1.267-2.56 2.66-5.032 2.374.88-2.394.145-4.947.474-7.815.199-.612.33-.802.661-1.27 1.39-4.226 4.426-6.81 7.329-9.337 6.283-5.466 12.237-11.274 18.266-17.005 1.457-1.385 2.834-2.31 5.114-1.046"/><path fill="#678F7C" d="M264.469 289.342c-1.736-1.025-3.007-1.97-3.555-3.97 1.918-2.1 4.115-3.671 5.84-5.653 8.178-9.405 18.831-16.15 27.164-25.385.696-.77 2.053-.943 3.46-1.444.408 1.076.46 2.201.445 3.743-.122.578-.178.74-.156 1.149.118.964.158 1.684.136 2.76-.218.557-.375.76-.781 1.246-8.737 9.105-18.079 17.027-26.814 25.587-1.448 1.42-2.717 3.631-5.74 1.967"/><path fill="#829674" d="M111.711 69.013c.679.68.999 1.42 1.374 2.456.155.537.255.777.257 1.397-5.852 5.346-10.444 11.614-16.315 16.291-8.595 6.848-15.893 15.016-24.266 22.013-2.77 2.316-4.421 5.41-7.41 7.795-4.1-1.793-4.734-3.201-1.22-6.735 13.583-13.653 28.376-26.01 41.887-39.722 1.524-1.545 3.009-3.14 5.693-3.495"/><path fill="#759279" d="M64.98 119.478c1.818-7.214 7.84-10.526 12.301-15.022 9.445-9.516 20.518-17.317 29.336-27.53 1.504-1.742 3.121-3.504 5.994-3.887 3.282 3.618.694 5.108-1.932 7.505-13.928 12.714-27.274 26.052-41.348 39.177-3.56.446-2.326 3.633-3.886 5.408-.327-1.563-.39-3.381-.465-5.651"/><path fill="#4B6564" d="M337.586 62.132c3.494 2.788 2.048 7.138 2.195 10.791.766 19.082 6.654 36.37 16.673 52.456 1.111 1.783 3.45 3.43 1.876 6.33-13.156-18.062-19.883-38.45-21.075-60.714-.15-2.804.132-5.632.33-8.863m47.675 96.048c1.623-2.432 2.99-.498 4.415.402 17.052 10.779 35.637 16.624 55.804 17.415 1.802.07 3.714-.211 5.292 1.746-23.684.674-45.6-5.574-65.51-19.564M176.82 451.476c-2.323.145-2.206-1.419-2.232-3.237-.305-21.568-5.321-41.786-17.318-60.002-1.149-1.744-2.721-3.464-2.24-6.191 12.233 15.467 18.82 33.452 20.941 53.12.567 5.252 1.343 10.534.849 16.31m-46.973-94.808c-2.042 1.37-3.545-.25-5.217-1.224-9.422-5.484-19.045-10.482-29.668-13.329-8.68-2.326-17.466-3.796-26.446-4.111-1.798-.063-3.7.206-5.295-1.712 24.188-.653 46.472 5.92 66.626 20.376"/><path fill="#090C08" d="M462.016 455.263c-.457.938-.741 1.548-.909 2.188-1.382 5.285-2.355 5.595-6.724 2.233-2.22-1.707-2.384-3.404-.291-5.33 2.937-2.703 5.613-5.75 8.8-8.11 5.215-3.858 5.502 2.372 8.538 4.23-3.294 1.87-7.09 1.536-9.414 4.789M50.432 60.319c.622-1.016.898-1.805 1.334-2.494.838-1.326-.63-4.02 1.632-4.133 2.096-.105 4.102 1.54 5.267 3.335 1.35 2.08-.712 3.258-1.954 4.502-1.287 1.29-2.635 2.52-3.976 3.754-5.513 5.075-5.516 5.072-9.59-1.562 2.229-1.304 5.164-1.081 7.287-3.402"/><path fill="#628585" d="M31.45 331.074c2.379-.078 4.347-1.09 6.211-2.142 7.344-4.149 13.36-1.52 19.173 3.765-.003.738-.31 1.102-1.087 1.47-4.358-.323-7.739-4.162-12.553-1.985-1.244.275-2.217-.086-3.416.577-3.37.744-5.862 2.764-9.216 3.346-.534-.281-.72-.442-1.059-.943-.263-1.465.52-2.15 1.285-3.261.27-.493.397-.632.662-.827m148.546 147.768c4.186-3.858 4.614-8.031 3-12.667-.873-2.506-1.904-4.956-2.92-7.817.763-.1 1.585.186 2.73.531.325.059.278.101.254.08 5.29 7.488 5.2 15.069.122 23.081-.254.528-.38.666-.638.863-.356.058-.603.038-1.22-.008-.87-.355-.962-.863-1.123-1.627-.153-.737-.162-1.25-.205-2.436"/><path fill="#547574" d="M30.13 334.682c2.7-.948 5.504-2.251 8.662-3.645 1.939 1.5.997 2.566-.43 3.463-1.266.795-2.644 1.434-3.67 3.085-.557.642-.917.96-1.617 1.422-1.163.546-2.03.901-2.695 2.082-.385.417-.57.554-1.08.8-3.337-2.168-2.005-5.391-2.12-8.75 1.084-.73 2.13-1 3.474-1.421.06.769-.18 1.688-.524 2.964m153.16 147.47c-.162-.556-.324-1.535.068-2.179 4.154-6.831 2.688-13.55-.288-20.646 6.63 6.946 6.78 13.674.22 22.825"/><path fill="#496B8C" d="M128.733 184.77c-1.15-.543-2.258-1.463-3.64-2.543-.275-.161-.288-.603-.278-.824 2.306-.356 4.09.138 3.918 3.366"/><path fill="#7E9374" d="M254.21 236.033c.566-1.018 1.39-1.898 2.509-2.865.02 1.417.489 3.531-2.51 2.865m-41.228 36.813c.614-1.055 1.627-2.12 2.915-3.323.795 2.185-.297 3.206-2.915 3.323"/><path fill="#50717B" d="M349.632 304.88c.505 1.047.827 2.095 1.296 3.432-1.732.106-1.763-1.31-1.841-3.047 0-.354.363-.383.545-.384"/><path fill="#678F7C" d="M297.721 249.156c.097.054.124.22.087.633-.212.005-.244-.251-.087-.633"/><path fill="#0D6A86" d="M199.944 187.808c.211-.312.45-.33.833-.057.132.133-.303.309-.525.384s-.293-.19-.308-.327"/><path fill="#73969F" d="M28.942 357.205c.287-4.712-.55-9.148.837-13.84.261-1.327.602-2.197 1.205-3.336.623-.54 1.04-.779 1.8-1.163.798-.34 1.251-.556 1.65-.856 6.59-4.973 13.328-5.262 20.578-.474.567.335.779.498 1.248.977 8 4.76 5.884 12.602 6.738 19.378.29 2.307-3.18 2.915-3.006 5.825-2.58 4.79-2.568 9.591-2.51 14.414.045 3.804.067 7.611-.258 11.853-.053 2.83.553 5.358-1.83 7.629-.357 7.967-.461 15.608-.395 23.248.03 3.53-1.388 5.179-5.016 5.148-17.585-.151-14.76 1.907-14.963-14.113-.116-9.134-.248-18.279.041-27.405.302-9.55.38-18.925-6.12-27.285m74.205 67.57c-6.036 3.178-9.725 8.463-14.142 12.885-3.392 3.397-5.707 3.273-9.03-.077-9.502-9.578-9.578-9.43-.126-19.001 2.782-2.817 6.05-5.218 8.11-9.12-.639-3.991 2.589-5.267 4.626-7.671 5.486-4.377 9.834-9.43 14.635-14.008 3.215-3.068 3.038-7.197 4.25-11.275 1.017-3.261 3.344-4.833 5.697-6.451 1.514-1.041 2.607-2.55 3.82-4.403.514-.36.754-.453 1.384-.586 7.015-1.221 13.195.16 19.46 3.391.603.341.834.501 1.302 1.01 1.581 3.19 2.92 6.053 3.703 9.092 1.407 5.458 1.75 10.916-3.379 14.737-2.5 1.863-2.481 5.727-6.246 6.716-8.934 1.557-14.908 6.962-20.421 13.134-2.106 2.357-4.438 4.512-7.246 6.644-1.918 2.126-3.349 4.31-6.397 4.983"/><path fill="#547A83" d="M103.149 425.156c.592-2.59 2.432-4.202 4.576-5.978 3.115-2.032 4.58.048 5.932 1.95 4.678 6.587 7.706 13.972 9.687 21.731.896 3.508 2.163 7.01 2.067 10.737-.056 2.147.05 4.332-2.018 6.23-2.756.183-5.12.177-7.928.158-.88-12.697-3.851-24.535-12.316-34.828m-9.092-22.572c-1.8 2.333-3.626 4.246-5.716 6.362-10.048-6.198-20.575-10.469-32.84-10.992-.438-2.35-.445-4.683-.445-7.456 1.516-2.636 3.76-3.088 6.158-2.79 11.037 1.37 21.214 5.073 30.368 11.452 1.087.758 2.13 1.599 2.475 3.424"/><path fill="#658A8F" d="M123.337 460.119c-.106-13.465-4.364-25.512-11.14-36.808-.935-1.557-1.913-3.13-3.906-4.186 5.265-5.845 10.78-11.597 16.424-17.218 2.634-2.621 6.44-2.427 10.077-3.623 5.854 3.282 8.022 9.036 10.174 14.538 4.203 10.747 6.794 21.888 6.565 33.57-.075 3.84-.226 7.556-2.46 11.283-2.378 2.407-5.218 2.323-8.044 2.348-5.785.05-11.57.13-17.69.096"/><path fill="#547A83" d="M149.328 457.89c-.525-.59-1.039-1.408-.95-2.155 2.341-19.82-2.279-38.045-12.447-55.03-.331-.553-.437-1.242-.71-2.196 10.206-5.226 12.998-11.984 8.979-22.168-.73-1.851-1.39-3.73-2.167-5.96 2.27-1.969 3.048-.102 3.724 1.504 1.672 3.972 3.26 7.987 3.272 12.844 0 1.78-.013 3.122-.027 4.868-2.465 6.033-1.031 10.992 1.578 16.377 5.608 11.571 9.035 23.908 8.817 36.887-.09 5.32 4.07 6.21 7.216 8.847 1.788 1.106 3.328 1.942 5.122 2.98.656.701 1.247.802 2.051 1.13.235.18.21.181.215.17 1.431 2.588 2.91 5.231 4.529 7.632 4.335 6.434 1.586 11.574-2.242 17.118-.274.285-.283.258-.273.27-.455.4-.989.558-1.963.26 1.78-6.102 4.628-11.695.938-18.266-5.367-9.556-15.36-11.875-25.662-5.111"/><path fill="#62888B" d="M173.568 481.146c.635-.108 1.157-.116 2.069-.126.301 1.944-.542 3.49-2.354 4.87-.273-.976-.264-2.145-.247-3.76.137-.601.274-.747.532-.984"/><path fill="#63898C" d="M452.787 159.136c5.594 4.336 11.193 7.966 18.7 6.881 2.157-.311 4.27-.654 6.255-1.546 6.663-2.995 7.699-6.275 4.286-14.106 3.052.904 4.144 4.222 6.775 6.477-1.87 3.973-4.957 7.41-3.806 12.715-3.314 6.507-13.51 12.2-18.338 10.094-13.456-5.873-16.378-8.66-13.872-20.515"/><path fill="#62888B" d="M484.663 172.84c-.496 5.662-7.45 11.224-14.47 12-6.933.768-16.296-5.796-17.153-12.411 2.088-1.23 2.962.652 4.062 1.633 3.244 2.89 7.245 4.654 11.214 5.307 3.798.624 7.327-2.28 10.923-3.763 1.82-.751 3.066-2.53 5.424-2.766m-96.776-23.19c-2.263 4.356-5.841 2.902-9.25 2.445-11.487-1.54-14.302-9.214-15.451-19.443-.2-1.777.828-3.166 2.52-4.441 2.289.636 2.592 2.534 2.904 4.299 1.475 8.34 6.236 13.366 14.651 14.806 1.665.285 3.229.796 4.626 2.334M340.682 28.061c1.525 4.317-2.262 7.086-3.502 10.723-2.088 6.12-.271 12.916 5.465 17.131 1.107.745 1.235 1.547.65 2.791-6.652-.704-13.499-10.792-11.765-17.052 1.482-5.35 3.874-10.293 9.152-13.593"/><path fill="#557B85" d="M388.404 150.004c-.553-.02-.719-.033-.882-.061-16.45-2.843-18.272-4.64-21.48-21.544a62 62 0 0 0-.917-4.072c4.372-1.59 6.054-6.652 10.746-8.224.253.64.155 1.37.03 2.468-4.387 6.125-6.46 12.115-2.792 19.165 3.062 5.885 12.603 9.028 18.361 5.663 1.748-1.02 3.4-2.18 6.035-1.817-.353 3.727-3.424 5.334-5.42 8.196-1.236.26-2.265.243-3.681.226m96.588 22.626c-1.515 1.377-2.95 2.519-4.547 3.354-10.37 5.426-14.078 7.099-27.138-3.759-1.376-1.05-2.062-2.158-2.274-3.9.42-3.826-1.153-7.583 1.605-11.03.333.189.372.59.446 1.292-.329 11.558 2.097 15.087 12.77 18.92 6.077 2.181 10.363-1.944 15.114-4.322 1.3-.65 2.323-1.856 3.748-2.998.277.562.279 1.315.276 2.444M343.245 59.245c-.245-.961-.256-1.715-.27-2.843-.002-.376.022-.398.034-.407 4.017-1.638 7.445.85 11.027 1.77 1.354.348 2.701 1.453 4.608 2.011.361.222.857.245 1.105.257.243.444.238.875.226 1.63-3.987.333-7.966.344-12.395.365-1.666-.852-2.883-1.713-4.335-2.783"/><path fill="#62888B" d="M176.33 480.941c5.266-8.514 2.093-16.42-2.28-24.6 6.444 5.497 9.823 12.25 6.003 21.436a2.8 2.8 0 0 0-.069.825c-1.107.846-2.222 1.551-3.653 2.339m3.675.312c.296.25.54.697.867 1.385-.666.054-1.035-.396-.867-1.385m-1.984 3.727c-.052 0 .052 0 0 0m-.015.033c.01.013-.097.01-.067-.012s.056 0 .067.012"/><path fill="#557B85" d="M385.62 30.999c.38.454.383.908.382 1.703-1.07.34-2.136.338-3.602.33-.182-.524.036-1.042.41-1.793.914-.236 1.673-.238 2.81-.24"/><path fill="#547A83" d="M31.955 340.67c-.244.855-.856 1.428-1.742 2.156-.502-.05-.72-.266-1.084-.658-.148-.337-.14-.504-.122-.922.761-.904 1.604-1.165 2.948-.576"/><path fill="#63898C" d="M358.758 59.774c-4.95-.7-10.637.467-15.443-3.585-1.021-1.676-1.626-3.224-2.496-4.606-4.976-7.905-1.601-15.006 3.533-20.54 3.059-3.295 7.116-1.664 11.222-2.018-3.615 5.28-6.649 10.896-5.263 17.895 1.048 5.287 3.806 9.498 8.447 12.854"/><path fill="#557B85" d="M397.807 140.357c.68-.337 1.111-.392 1.864-.511-.158.582-.637 1.23-1.384 2.023-.266.148-.284.133-.292.127-.362-.39-.505-.84-.188-1.64"/><path fill="#63898C" d="M397.61 140.055c.428.445.411.87.386 1.615-1.02.865-2.142 1.272-3.024 1.978-9.192 7.356-21.72 3.541-25.358-7.757-2.849-8.847-1.87-11.745 5.951-16.831 1.232 14.379 7.564 20.653 22.045 20.995"/><path fill="#217C94" d="M276.826 300.934c-1.884.519-2.695-.963-3.926-2.33-2.644-4.522-1.39-7.642 2.092-10.909 7.044-6.608 13.562-13.776 21.44-19.974 1.258.133 2.058.387 3.242.802 1.724 1.293 3.04 2.504 4.521 4.001-4.756-1.057-7.993 1.603-11.105 4.857-4.214 4.406-8.41 8.855-12.93 12.935-3.242 2.925-5.941 5.626-3.334 10.618m144.137 96.146c2.16.073 4.747.516 2.566 2.908-3.996 4.383-8.483 8.334-12.944 12.262-.84.74-2.513.533-4.197.744 3.186-6.476 9.135-10.72 14.575-15.915"/><path fill="#0D6A86" d="M359.559 353.062c.88.957 1.603 1.944 1.383 3.593-1.242.187-2.68.323-3.243-1.111-.538-1.37.415-1.994 1.86-2.482m-34.545-24.74c-1.411 1.054-2.343-.397-3.832-.732 1.58-3.187 2.885-2.697 3.832.732"/><path fill="#496B8C" d="M313.164 281.384c1.694.293 2.694 1.723 3.973 3.319-1.998.209-4.022-.049-3.973-3.319m-32.608 22.398c-1.827.568-2.443-1.001-3.651-2.177 1.58-.41 3.388-.674 3.65 2.177m76.101 69.411c-.221 1.42-1.137 2.485-2.922 2.955-.61-2.235.597-2.974 2.922-2.955m-12.02 5.636c-.965.253-1.97.21-3.34.042.763-1.798 1.95-2.47 3.34-.042"/><path fill="#547A83" d="M396.553 407.773c-.84-.377-1.614-1.087-2.518-2.02 1.48-.589 2.536-.167 2.518 2.02"/><path fill="#50717B" d="M385.118 330.413c.873.361 1.775 1.06 2.803 2.016-1.417.474-2.544.069-2.803-2.016"/><path fill="#237F94" d="M123.763 92.376c1.023 1.383 1.704 2.6 2.455 4.16-1.743.84-3.182 1.931-4.532 3.182-8.73 8.098-17.419 16.24-26.227 24.251-2.336 2.125-3.253 4.462-2.551 7.852-2.637-1.143-5.268-2.65-8.112-4.446-.453-.74-.657-1.207-.883-2.065 4.124-6.549 10.213-10.891 15.418-16.047 5.51-5.458 11.025-11.024 17.261-15.74 1.2-.908 2.312-1.907 4.299-1.946 1.143.04 1.844.312 2.872.8"/><path fill="#217C94" d="M217.19 203.942c2.543 1.866 5.04 4.14 7.671 6.722 1.97 2.66 1.474 4.85-.546 6.704-5.627 5.165-11.217 10.37-16.616 15.772-2.767 2.769-5.474 1.474-8.67.167-.732-.134-1.044-.231-1.532-.546 6.474-6.252 13.084-12.427 19.852-18.425 2.32-2.056 4.592-3.622.66-6.277-1.128-.76-.926-2.38-.82-4.117"/><path fill="#0D6A86" d="M189.031 185.447c2.853-.24 5.593.488 8.508 2.026-3.007 1.516-6.5 3.543-8.508-2.026m-76.163-24.72c-2.048-1.626-3.278-4.117-4.07-7.237 5.27-.265 4.004 3.664 4.07 7.237m4.034 8.075c-2.056-1.634-3.297-4.14-4.06-7.285 5.35-.259 3.885 3.769 4.06 7.285m52.134 8.511c1.717-.625 3.09.182 4.587 1.462-2.147 2.382-3.943 2.643-4.587-1.462M132.9 188.731c-2.002.163-3.067-1.237-4.041-3.162 2.24-.532 3.887.132 4.041 3.162m24.23-47.867c.066-1.943 1.313-3.17 3.481-3.917.328 2.257-.468 3.88-3.481 3.917m-20.138 51.676c-1.449-.507-3.426-.75-4.039-3.128 2.134-.404 3.817.197 4.039 3.129"/><path fill="#547A83" d="M148.512 199.747c-1.467-.427-2.882-1.205-4.467-2.248 1.702-.213 3.993-1.074 4.467 2.248"/><path fill="#496B8C" d="M129.214 136.26c.935.998 1.812 2.384 2.813 4.041-2.933.536-2.897-1.564-2.813-4.041"/><path fill="#547A83" d="M165.923 173.725c.432.869.779 1.841 2.03 2.523-1.92.554-3.126.088-2.03-2.523"/><path fill="#217C94" d="M196.95 232.003c-.956-.493-1.967-1.367-3.144-2.528 1.538-.304 2.751.336 3.145 2.528"/><path fill="#547A83" d="M137.47 150.233c.847.386 1.622 1.101 2.523 2.044-1.473.55-2.558.15-2.523-2.044"/><path fill="#678F7C" d="M69.22 120.108c-.144-4.905 3.766-6.767 6.598-9.468 8.769-8.363 17.455-16.813 26.243-25.155 2.638-2.504 5.52-4.75 8.262-7.146 1.4-1.224 2.594-2.6 2.622-4.989.046-.568.074-.771.149-1.28 2.379 2.1 3.85 5.018 5.09 8.453-5.255 3.43-9.666 7.581-13.899 11.904-8.925 9.117-18.93 17.102-27.636 26.445-1.149 1.234-2.404 2.311-4.516 2.373-1.117-.41-1.896-.673-2.914-1.137"/><path fill="#578B82" d="M72 121.36c11.802-13.586 25.743-24.942 38.087-37.923 2.024-2.129 4.574-2.51 7.71-2.534 1.627.72 1.957 2.008 2.423 3.538-13.466 10.072-24.365 22.646-36.702 33.635-1.971 1.757-3.741 3.74-6.24 5.484-1.89-.483-3.481-1.21-5.277-2.2"/><path fill="#478888" d="M77.292 123.97c2.086-7.151 8.333-10.874 13.198-15.671 7.068-6.97 14.76-13.302 22.011-20.093 2.054-1.923 4.08-3.316 7.319-3.383.73.457 1.06.967 1.44 1.79-.047.525-.144.737-.47 1.21-11.053 12.09-23.162 22.618-34.335 34.09-1.142 1.171-2.883 1.041-4.14 2.508-.437.36-.624.489-1.124.756-1.404-.255-2.495-.65-3.9-1.207"/><path fill="#527481" d="M84.624 124.688c.246.794.193 1.259.05 2.06-1.46.587-2.336-.489-3.626-1.172a.56.56 0 0 1-.039-.589c1.033-.954 2.094-1.293 3.615-.3m39.453-32.452c-.731.417-1.49.526-2.634.641-2.64-1.356-2.766-3.074-.895-5.446.343-.376.546-.457.654-.48a53 53 0 0 1 2.875 5.285"/><path fill="#64898E" d="M166.882 451.524c-1.018.463-2.015.487-3.012.48-6.398-.046-6.859-.438-6.857-6.76.004-15.996-4.165-30.92-12.108-44.682-3.11-5.39.42-7.483 3.818-10.376 9.77 13.982 16.024 29.34 17.265 46.498.347 4.791 1.379 9.543.894 14.84"/><path fill="#547A83" d="M121.884 365.712c-1.022 4.857-6.082 6.403-7.828 10.902-1.63 2.103-3.28 1.682-4.998.638-14.63-8.886-30.591-12.634-47.603-12.292-1.224.025-2.319-.145-3.197-1.621 1.373-3.654 2.741-6.788 2.873-10.628.191-5.551-.954-10.022-6-13.39.453-1.059 1.259-1.166 2.53-.584.363.247.35.268.342.258.43.461 1.049.493 1.853.834 1.541 1.752 2.778 3.361 3.108 5.82 3.22 5.392 8.167 6.426 13.682 6.96 11.135 1.079 21.762 4.274 31.696 9.427 3.74 1.94 7.183 4.15 11.63 2.546.613-.221 1.215.411 1.912 1.13"/><path fill="#64898E" d="M122.03 366.03c-4.607 3.999-8.571 2.113-13.175-.643-12.067-7.223-25.6-10.014-39.434-11.023-5.337-.389-7.046-2.627-6.414-7.936 19.097-.926 36.971 3.354 53.384 13.274 1.84 1.112 3.525 2.482 5.502 3.99.553.689.672 1.173.358 2.029-.22.32-.236.299-.22.31"/><path fill="#62888B" d="M149.203 384.815c-2.324-4.598-2.339-10.482-6.942-14.65-.313-.147-.27-.166-.272-.143-4.215-3.599-9.754-3.643-14.872-5.714 4.702-2.735 15.717-.117 18.574 4.519 2.913 4.728 4.456 9.954 3.512 15.988M57.952 338.63c-.7.364-1.471.374-2.63.398-.387.014-.355-.023-.347-.002-5.308-3.878-10.771-6.423-17.13-2.1-1.369.929-2.875 1.78-4.83.439 1.797-2.144 3.8-3.977 5.968-6.114.854-.562 1.545-.82 2.504-1.154 4.9-.838 8.742 1.79 13.309 2.899.78.015 1.195.007 1.92-.01.312-.01.29 0 .298-.006.36.355.493.788.191 1.548.062 1.426.368 2.588.747 4.103"/><path fill="#628585" d="M144.33 362.548c5.578 3.106 8.385 9.446 7.56 18.106-1.52-12.242-7.835-19.448-21.89-19.855 5.34-1.34 7.64-.963 14.33 1.75"/><path fill="#547A83" d="M126.503 363.996c5.482 1.389 11.21 1.018 15.336 5.736-6.087-1.586-12.102-4.54-19.362-3.68-.435-.476-.424-.94-.388-1.754 1.355-.333 2.685-.318 4.414-.302"/><path fill="#628585" d="M57.21 334.884c-.235-.495-.222-.897-.198-1.604 1.045.09 2.635.236 2.492 1.57-.111 1.038-1.32.192-2.294.034"/><path fill="#62888B" d="M173.79 455.822c-.294-.07-.819-.316-1.572-.747.295.067.818.319 1.573.747M59.856 339.834q-.45-.087-1.62-.68.45.085 1.62.68"/><path fill="#628585" d="M178.985 456.976c.006.039-.006-.04 0 0m.022.02c.258.183.491.391.858.798.153.178.132.204.118.215-.26-.182-.488-.396-.845-.812-.147-.182-.138-.197-.13-.201"/><path fill="#6B907B" d="M248.846 232.719c-1.246.7-2.144 1.643-3.12 2.564a3274 3274 0 0 1-27.397 25.55c-.464.025-.632-.091-.898-.5-.153-3.65-.207-7.008-.253-10.822 3.703-5.126 8.27-8.902 12.704-12.807 2.473-2.178 5.261-4.025 7.328-6.625 2.055-2.584 4.353-3.358 7.59-1.324 1.54 1.345 2.755 2.5 4.046 3.964"/><path fill="#4A8786" d="M232.817 217.937c1.594 1.02 2.86 2.148 4.272 3.56 2.486 5.454 2.295 7.227-2.173 10.903-4.621 3.8-9.194 7.646-13.44 11.849-2.194 2.17-4.347 2.845-7.444 1.073-4.127-1.832-7.006-4.68-10.18-7.645.175-2.014 1.382-2.613 3.375-2.684 4.405 2.154 7.41.202 10.184-2.46 5.03-4.825 9.911-9.805 15.406-14.596"/><path fill="#5A897E" d="M213.783 245.505c1.855-.51 3.604-1.23 5.171-2.592 4.834-4.202 9.768-8.29 14.618-12.472 2.375-2.048 3.437-4.758 3.61-8.261 3.162 1.12 5.44 3.609 7.813 6.452-2.505.297-4.542 1.45-6.425 3.259-5.103 4.903-10.339 9.667-15.483 14.528-1.485 1.402-3.069 2.486-5.539 2.606-1.443-1.059-2.526-2.148-3.765-3.52"/><path fill="#2B8091" d="M209.371 237.01c-1.855.076-3.338.142-5.254.294-2.313-.725-3.865-1.964-5.325-3.82 4.12-.078 7.36-1.845 10.311-4.958 3.64-3.84 7.785-7.197 11.649-10.83 1.797-1.69 3.81-3.287 4.193-6.367 1.344.682 2.638 1.72 4.098 3.021.538 1.83 1.335 3.297-.082 4.905-5.8 6.579-11.603 13.136-19.59 17.754"/><path fill="#5A897E" d="M217.277 260.29c.246-.069.41.132.654.52.103.165-.242.215-.417.22-.213-.16-.253-.325-.237-.74"/><path fill="#4B8584" d="M264.223 289.453c1.93-.656 3.432-1.821 4.85-3.305 7.628-7.982 16.601-14.546 24.056-22.724.858-.94 2.13-1.503 3.535-2.343.812.276.822.84.992 1.637.143.71.188 1.162.185 1.953-.214.53-.38.722-.815 1.185-7.522 8.469-16.071 15.367-23.496 23.409-1.432 1.55-2.132 3.668-4.373 4.932-1.859-1.4-3.34-2.929-4.934-4.744"/><path fill="#50717B" d="M296.74 265.357c.285-.36.67-.357.862-.352.862 1.028 1.532 2.05 2.341 3.337-.615.366-1.37.468-2.506.575-1.656-.862-1.623-1.974-.697-3.56"/><path fill="#39858C" d="M297.816 262.631c-.268-.15-.475-.643-.754-1.395-.073-.259.302-.305.49-.321.235.446.28.909.264 1.716"/><path fill="#4B8584" d="M297.8 257.783c-.188.008-.222-.241-.1-.618.057-.116.154.374.1.618"/><path fill="#39858C" d="M209.027 237.365c2.362-6.36 8.754-8.643 12.329-13.61 2.2-3.056 5-5.682 7.692-8.822 1.37.558 2.58 1.435 3.944 2.605-.228 3.621-2.07 5.88-4.62 8.025-5.041 4.24-9.761 8.863-14.6 13.342-2.211 2.047-4.002 2.593-4.745-1.54m87.672 27.739c.328.94.33 1.99.343 3.428-6.754 7-13.456 13.675-20.317 20.183-2.59 2.455-4.017 5.205-3.921 9.182-1.29-.718-2.514-1.854-3.881-3.28-.046-2.884 1.09-4.747 2.987-6.663 7.844-7.924 15.838-15.667 24.789-22.85"/><path fill="#547574" d="M54.869 332.801c-4.303 1.068-8.086-1.945-12.755-2.616 4.557-2.519 8.38.587 12.755 2.616"/><path fill="#547A83" d="M32.663 337.17c2.529-.077 4.528-1.173 6.619-2.142 5.457-2.529 11.147-1.227 15.586 3.689-7.19-3.776-14.291-3.523-21.52 1.46-1.177-.178-1.619-.784-1.55-2.014.345-.543.528-.714.865-.992"/><path fill="#62888B" d="M31.674 337.946c.558.476.822 1.098 1.206 2.04-.021.473-.17.621-.442.865-.944.114-1.773.126-3.01.141-.104-1.357.683-2.324 2.246-3.046"/><path fill="#628585" d="M30.012 335.022c.015.016-.099.002-.073-.022s.059.005.073.022"/><path fill="#658A8F" d="M57.877 363.217c18.29-2.114 35.035 1.88 50.683 10.846a130 130 0 0 0 5.058 2.784c-.463 12.888-10.91 18.504-19.22 26.05-4.847-2.31-9.289-4.919-13.932-7.099-7.742-3.636-15.89-5.807-24.965-5.753-.46-6.265-.443-12.545-.524-18.824-.038-2.924.5-5.586 2.9-8.004"/><path fill="#36858E" d="M120.546 87.094c.395 1.627.444 3.294.503 5.375-11.335 10.421-22.753 20.348-33.279 31.241-.54.56-1.43.784-2.502 1.236-1.375.045-2.405.017-3.82-.037.206-2.69 2.48-4.072 4.214-5.784 9.806-9.677 19.714-19.25 29.584-28.86 1.432-1.396 2.801-2.883 5.3-3.17"/></svg>